<?xml version="1.0" encoding="UTF-8" standalone="no"?>
<!DOCTYPE svg PUBLIC "-//W3C//DTD SVG 1.1//EN"
 "http://www.w3.org/Graphics/SVG/1.1/DTD/svg11.dtd">
<!-- Generated by graphviz version 2.40.1 (20161225.0304)
 -->
<!-- Title: pipeline_dag Pages: 1 -->
<svg width="105pt" height="169pt"
 viewBox="0.00 0.00 104.52 168.80" xmlns="http://www.w3.org/2000/svg" xmlns:xlink="http://www.w3.org/1999/xlink">
<g id="graph0" class="graph" transform="scale(1 1) rotate(0) translate(4 164.8)">
<title>pipeline_dag</title>
<polygon fill="#ffffff" stroke="transparent" points="-4,4 -4,-164.8 100.5209,-164.8 100.5209,4 -4,4"/>
<!-- p0 -->
<g id="node1" class="node">
<title>p0</title>
<ellipse fill="#000000" stroke="#000000" cx="65.4174" cy="-143.2" rx="3.6" ry="3.6"/>
<text text-anchor="middle" x="30.9087" y="-149.6" font-family="Times,serif" font-size="14.00" fill="#000000">Channel.of</text>
</g>
<!-- p1 -->
<g id="node2" class="node">
<title>p1</title>
<ellipse fill="none" stroke="#000000" cx="65.4174" cy="-71.6" rx="27" ry="18"/>
<text text-anchor="middle" x="65.4174" y="-67.4" font-family="Times,serif" font-size="14.00" fill="#000000">foo</text>
</g>
<!-- p0&#45;&gt;p1 -->
<g id="edge1" class="edge">
<title>p0&#45;&gt;p1</title>
<path fill="none" stroke="#000000" d="M65.4174,-139.3505C65.4174,-131.8927 65.4174,-114.8775 65.4174,-99.7657"/>
<polygon fill="#000000" stroke="#000000" points="68.9175,-99.7487 65.4174,-89.7487 61.9175,-99.7487 68.9175,-99.7487"/>
<text text-anchor="middle" x="72.0243" y="-110.4" font-family="Times,serif" font-size="14.00" fill="#000000">ch</text>
</g>
<!-- p2 -->
<g id="node3" class="node">
<title>p2</title>
<ellipse fill="#000000" stroke="#000000" cx="65.4174" cy="-1.8" rx="1.8" ry="1.8"/>
</g>
<!-- p1&#45;&gt;p2 -->
<g id="edge2" class="edge">
<title>p1&#45;&gt;p2</title>
<path fill="none" stroke="#000000" d="M65.4174,-53.2609C65.4174,-40.8556 65.4174,-24.8161 65.4174,-13.9662"/>
<polygon fill="#000000" stroke="#000000" points="68.9175,-13.8984 65.4174,-3.8985 61.9175,-13.8985 68.9175,-13.8984"/>
<text text-anchor="middle" x="80.9691" y="-24.4" font-family="Times,serif" font-size="14.00" fill="#000000">result</text>
</g>
</g>
</svg>
